<?xml version="1.0" encoding="utf-8"?>
<!-- Generator: Adobe Illustrator 22.1.0, SVG Export Plug-In . SVG Version: 6.00 Build 0)  -->
<svg version="1.1" id="Layer_1" xmlns="http://www.w3.org/2000/svg" xmlns:xlink="http://www.w3.org/1999/xlink" x="0px" y="0px"
	 viewBox="0 0 719.2 356.6" style="enable-background:new 0 0 719.2 356.6;" xml:space="preserve">
<style type="text/css">
	.st0{fill:#8E363D;}
	.st1{fill:#1A3E49;}
	.st2{fill:#CCC486;}
</style>
<g>
	<polygon class="st0" points="206.1,43.3 97.3,43.3 96.1,92.2 153,92.2 206.1,92.2 	"/>
</g>
<g>
	<path class="st1" d="M153,92.2v132h-1.2v0.4c0,9.2-3.5,17.7-10,24.2s-15,10.4-24.2,10.4s-18.1-3.8-24.6-10.4s-10-15-10-24.2v-0.4
		H29.2v0.4c0,48.9,39.6,88.5,88.5,88.5c48.5,0,88.1-39.6,88.1-88.5v-0.4h0.4v-132H153z"/>
</g>
<g>
	<polygon class="st0" points="529.8,43.5 475.9,43.5 475.9,312.8 529.8,312.8 529.8,200.5 529.8,146.6 	"/>
</g>
<g>
	<rect x="629.4" y="43.5" class="st2" width="53.9" height="103.1"/>
</g>
<g>
	<polygon class="st1" points="683.3,146.6 629.4,146.6 529.8,146.6 529.8,200.5 629.4,200.5 683.3,200.5 	"/>
</g>
<g>
	<rect x="629.4" y="200.5" class="st2" width="53.9" height="112.3"/>
</g>
<g>
	<polygon class="st2" points="302.1,44.2 248.5,44.2 248.5,312.2 302.1,312.2 302.1,210.7 302.1,130.7 	"/>
</g>
<g>
	<polygon class="st0" points="452.9,44.2 380.6,44.2 302.1,130.7 302.1,210.7 322.7,189.7 359.1,149.1 	"/>
</g>
<g>
	<polygon class="st1" points="359.1,149.1 322.7,189.7 391.3,312.2 455.2,312.2 	"/>
</g>
</svg>
