<?xml version="1.0" encoding="utf-8"?>
<!-- Generator: Adobe Illustrator 22.1.0, SVG Export Plug-In . SVG Version: 6.00 Build 0)  -->
<svg version="1.1" id="Layer_1" xmlns="http://www.w3.org/2000/svg" xmlns:xlink="http://www.w3.org/1999/xlink" x="0px" y="0px"
	 viewBox="0 0 841.9 153.1" style="enable-background:new 0 0 841.9 153.1;" xml:space="preserve">
<style type="text/css">
	.st0{fill:#1A3E49;}
	.st1{fill:#8E363D;}
	.st2{fill:none;}
	.st3{fill:#CCC486;}
</style>
<g>
	<g>
		<path class="st0" d="M284.6,75.2c0,20.7-16.9,37.6-37.6,37.6s-37.6-16.9-37.6-37.6s16.9-37.6,37.6-37.6S284.6,54.5,284.6,75.2z
			 M224.4,75.2c0,12.5,10.1,22.7,22.7,22.7c12.5,0,22.7-10.1,22.7-22.7S259.6,52.5,247,52.5C234.5,52.5,224.4,62.7,224.4,75.2z"/>
	</g>
</g>
<g>
	<polygon class="st1" points="66.4,38.9 37.1,38.9 36.8,52.1 52.1,52.1 66.4,52.1 	"/>
</g>
<g>
	<path class="st0" d="M52.1,52.1v35.5h-0.3v0.1c0,2.5-0.9,4.8-2.7,6.5c-1.8,1.8-4,2.8-6.5,2.8c-2.5,0-4.9-1-6.6-2.8
		c-1.8-1.8-2.7-4-2.7-6.5v-0.1H18.8v0.1c0,13.2,10.7,23.8,23.8,23.8c13,0,23.7-10.7,23.7-23.8v-0.1h0.1V52.1H52.1z"/>
</g>
<polygon class="st2" points="93.7,97 122.6,97 108.8,67.4 "/>
<g>
	<polygon class="st0" points="122.6,97 138.7,97 111.3,38.9 108.8,38.9 108.8,67.4 	"/>
</g>
<g>
	<polygon class="st3" points="108.8,67.4 108.8,38.9 107,38.9 77.4,97 93.7,97 	"/>
</g>
<g>
	<polygon class="st1" points="122.6,97 93.7,97 77.4,97 72,107.7 72,111.5 143.8,111.5 143.8,107.7 138.7,97 	"/>
</g>
<g>
	<polygon class="st1" points="301.6,38.9 297.1,38.9 297.1,111.5 311.6,111.5 311.6,69.2 311.6,49 	"/>
</g>
<g>
	<polygon class="st3" points="341.7,38.9 341.7,79.5 341.7,100.5 352.4,111.5 356.2,111.5 356.2,38.9 	"/>
</g>
<g>
	<polygon class="st0" points="311.6,49 311.6,69.2 341.7,100.5 341.7,79.5 	"/>
</g>
<g>
	<polygon class="st1" points="415.2,39.1 400.7,39.1 400.7,111.5 415.2,111.5 415.2,81.3 415.2,66.8 	"/>
</g>
<g>
	<rect x="442" y="39.1" class="st3" width="14.5" height="27.8"/>
</g>
<g>
	<polygon class="st0" points="456.5,66.8 442,66.8 415.2,66.8 415.2,81.3 442,81.3 456.5,81.3 	"/>
</g>
<g>
	<rect x="442" y="81.3" class="st3" width="14.5" height="30.2"/>
</g>
<g>
	<rect x="483.5" y="66.8" class="st1" width="28" height="14.5"/>
</g>
<g>
	<rect x="483.5" y="97" class="st3" width="33.6" height="14.5"/>
</g>
<g>
	<polygon class="st0" points="517.3,53.4 517.3,38.9 469,38.9 469,111.5 483.5,111.5 483.5,97 483.5,81.3 483.5,66.8 483.5,53.4 	
		"/>
</g>
<path class="st2" d="M550.3,97h1c12,0,21.7-9.8,21.7-21.9c0-5.7-2.2-11-5.8-14.8L550.3,97z"/>
<path class="st2" d="M561.6,56c-3-1.7-6.5-2.6-10.3-2.6h-6v37.9L561.6,56z"/>
<g>
	<rect x="530.8" y="38.9" class="st3" width="14.5" height="14.5"/>
</g>
<g>
	<path class="st0" d="M584.7,61.1c-1.8-4.3-4.3-8.2-7.8-11.6c-3.3-3.3-7.1-5.9-11.5-7.8c-4.5-1.9-9.2-2.8-14.1-2.8h-6v14.5h6
		c3.7,0,7.2,0.9,10.3,2.6l-16.3,35.3V53.4h-14.5v58h5.9v0.1h14.6c4.9,0,9.6-0.9,14.1-2.9c4.3-1.8,8.2-4.5,11.5-7.8
		c3.4-3.3,6-7.1,7.8-11.5c2-4.5,2.9-9.2,2.9-14.2C587.6,70.3,586.6,65.6,584.7,61.1z M551.3,97h-1l17-36.7c3.6,3.8,5.8,9.1,5.8,14.8
		C573.1,87.2,563.3,97,551.3,97z"/>
</g>
<g>
	<polygon class="st3" points="636.3,86.1 647.1,76.3 636.3,66.5 625.6,76.3 	"/>
</g>
<g>
	<polygon class="st1" points="615.5,67.1 625.6,76.3 636.3,66.5 629.6,60.4 636.3,66.5 606,38.9 601,38.9 601,97 615.5,97 	"/>
</g>
<g>
	<polygon class="st0" points="666.6,38.9 636.3,66.5 655.2,49.3 636.3,66.5 647.1,76.3 657.2,67.1 657.2,97 671.7,97 671.7,38.9 	
		"/>
</g>
<g>
	<polygon class="st3" points="615.5,97 601,97 601,111.5 671.7,111.5 671.7,97 657.2,97 	"/>
</g>
<polygon class="st2" points="705.6,97 734.6,97 720.7,67.4 "/>
<g>
	<polygon class="st0" points="734.6,97 750.7,97 723.2,38.9 720.7,38.9 720.7,67.4 	"/>
</g>
<g>
	<polygon class="st3" points="720.7,67.4 720.7,38.9 719,38.9 689.4,97 705.6,97 	"/>
</g>
<g>
	<polygon class="st1" points="734.6,97 705.6,97 689.4,97 684,107.7 684,111.5 755.8,111.5 755.8,107.7 750.7,97 	"/>
</g>
<g>
	<polygon class="st1" points="769.3,38.9 764.8,38.9 764.8,111.5 779.3,111.5 779.3,69.2 779.3,49 	"/>
</g>
<g>
	<polygon class="st3" points="809.4,38.9 809.4,79.5 809.4,100.5 820.1,111.5 823.9,111.5 823.9,38.9 	"/>
</g>
<g>
	<polygon class="st0" points="778.8,49.3 779.2,69.5 809.9,100.2 809.5,79.3 	"/>
</g>
<g>
	<path class="st3" d="M237.4,75.2c0,5.6,4,9.6,9.6,9.6c5.6,0,9.6-4,9.6-9.6s-4-9.6-9.6-9.6C241.4,65.6,237.4,69.6,237.4,75.2z"/>
</g>
<g>
	<path class="st1" d="M165.9,59.2c-0.1-2.4,0.6-3.5,1.2-4.1c1.9-2,5.5-2.7,6.4-2.7c6.3,0,9.3,2,14,5l2.6,1.7l7.6-12.3l-2.4-1.6
		c-5.3-3.4-11.2-7.2-21.7-7.2c-3.7,0-11.5,1.6-16.9,7.1c-3.7,3.9-5.6,9-5.3,14.8c0.3,6.9,3.5,12.5,9.3,16.4c4.1,2.8,8.6,3.9,11,4.6
		l0.5,0.1l0.3,0.1c0.9,0.3,1.8,0.6,2.6,1V66.7C168.6,65,166,63,165.9,59.2z"/>
</g>
<g>
	<path class="st0" d="M193.4,77c-3.7-4-9.1-7.2-16.1-9.6c-0.6-0.2-1.2-0.4-2.1-0.6c0,0-0.1,0-0.1,0V82c6,2.5,9.4,5.7,9.4,9.2
		c0,1.9-2,7.4-8,7.4c-3.2,0-11.8,0-19.5-8.2l-10.6,9.9c5,5.3,10.8,8.9,17.3,11c5.2,1.6,9.5,1.8,12.7,1.8c6.5,0,12.4-2.7,16.7-7.5
		c3.6-4,5.8-9.3,5.8-14.4C199.1,86,197.1,81.1,193.4,77z"/>
</g>
</svg>
